<?xml version="1.0" encoding="UTF-8" standalone="no"?>
<!-- Created with Inkscape (http://www.inkscape.org/) -->

<svg
   width="366.39096mm"
   height="389.61005mm"
   viewBox="0 0 366.39097 389.61005"
   version="1.1"
   id="svg1"
   xml:space="preserve"
   inkscape:version="1.3.2 (091e20e, 2023-11-25, custom)"
   sodipodi:docname="g18.svg"
   inkscape:export-filename="g18.png"
   inkscape:export-xdpi="96"
   inkscape:export-ydpi="96"
   xmlns:inkscape="http://www.inkscape.org/namespaces/inkscape"
   xmlns:sodipodi="http://sodipodi.sourceforge.net/DTD/sodipodi-0.dtd"
   xmlns="http://www.w3.org/2000/svg"
   xmlns:svg="http://www.w3.org/2000/svg"><sodipodi:namedview
     id="namedview1"
     pagecolor="#ffffff"
     bordercolor="#000000"
     borderopacity="0.25"
     inkscape:showpageshadow="2"
     inkscape:pageopacity="0.0"
     inkscape:pagecheckerboard="0"
     inkscape:deskcolor="#d1d1d1"
     inkscape:document-units="mm"
     inkscape:zoom="0.25732566"
     inkscape:cx="237.0537"
     inkscape:cy="1284.3647"
     inkscape:window-width="1920"
     inkscape:window-height="1094"
     inkscape:window-x="-11"
     inkscape:window-y="-11"
     inkscape:window-maximized="1"
     inkscape:current-layer="g1" /><defs
     id="defs1"><linearGradient
       id="a"
       x1="19.075001"
       y1="18.782"
       x2="34.897999"
       y2="34.658001"
       gradientUnits="userSpaceOnUse"><stop
         stop-color="#387EB8"
         id="stop2" /><stop
         offset="1"
         stop-color="#366994"
         id="stop3" /></linearGradient><linearGradient
       id="b"
       x1="28.809"
       y1="28.882"
       x2="45.803001"
       y2="45.162998"
       gradientUnits="userSpaceOnUse"><stop
         stop-color="#FFE052"
         id="stop4" /><stop
         offset="1"
         stop-color="#FFC331"
         id="stop5" /></linearGradient></defs><g
     id="g1"
     inkscape:groupmode="layer"
     inkscape:label="1"
     transform="matrix(0.26458333,0,0,0.26458333,-1252.1039,-266.42373)"><g
       style="fill:none"
       id="g18"
       transform="matrix(9.814272,0,0,9.814272,4606.4221,1692.4522)"
       inkscape:export-filename="g18.svg"
       inkscape:export-xdpi="96"
       inkscape:export-ydpi="96"><path
         d="m 31.885,16 c -8.124,0 -7.617,3.523 -7.617,3.523 l 0.01,3.65 h 7.752 v 1.095 H 21.197 c 0,0 -5.197,-0.59 -5.197,7.608 0,8.196 4.537,7.906 4.537,7.906 h 2.708 v -3.804 c 0,0 -0.146,-4.537 4.465,-4.537 h 7.688 c 0,0 4.32,0.07 4.32,-4.175 v -7.019 c 0,0 0.656,-4.247 -7.833,-4.247 z m -4.275,2.454 c 0.771,0 1.395,0.624 1.395,1.395 0,0.771 -0.624,1.395 -1.395,1.395 a 1.393,1.393 0 0 1 -1.395,-1.395 c 0,-0.771 0.624,-1.395 1.395,-1.395 z"
         fill="url(#a)"
         id="path1"
         style="fill:url(#a)" /><path
         d="m 32.115,47.833 c 8.124,0 7.617,-3.523 7.617,-3.523 l -0.01,-3.65 H 31.97 v -1.095 h 10.832 c 0,0 5.198,0.59 5.198,-7.607 0,-8.197 -4.537,-7.906 -4.537,-7.906 h -2.708 v 3.803 c 0,0 0.146,4.537 -4.465,4.537 h -7.688 c 0,0 -4.32,-0.07 -4.32,4.175 v 7.019 c 0,0 -0.656,4.247 7.833,4.247 z m 4.275,-2.454 a 1.393,1.393 0 0 1 -1.395,-1.395 c 0,-0.77 0.624,-1.394 1.395,-1.394 0.771,0 1.395,0.623 1.395,1.394 0,0.772 -0.624,1.395 -1.395,1.395 z"
         fill="url(#b)"
         id="path2-0"
         style="fill:url(#b)" /></g><path
       fill="#444444"
       d="m 5126.6274,1659.0468 v 24.481 l -1.8286,-0.3358 c -11.2329,-1.9593 -23.1936,-1.1756 -33.3816,2.2204 -22.5591,7.5384 -35.2102,27.5225 -34.0719,53.8695 0.5411,11.8114 2.9108,19.9469 8.0235,27.6159 7.2958,10.9903 19.1071,17.5211 36.3857,20.2453 12.707,2.0152 38.5502,0.5971 56.034,-3.0974 l 1.3248,-0.2986 v -149.1067 h -32.5046 v 24.425 z m -2.3138,49.9324 2.3138,0.5971 v 51.9476 l -3.3027,0.2985 c -12.8563,1.2315 -21.3276,-0.9329 -26.7388,-6.9039 -4.2357,-4.6276 -6.4002,-11.233 -6.4002,-19.3498 0,-14.3863 6.848,-24.1265 18.9019,-26.8881 3.4893,-0.7837 11.6621,-0.6344 15.226,0.2986 z m 54.0188,-57.8626 v 16.4948 h 32.5046 l -0.093,-16.4015 -0.1493,-16.3456 -16.103,-0.1493 -16.159,-0.093 z m 88.1468,31.0678 c -11.4755,0.8396 -23.4921,3.7878 -33.5868,8.2287 l -2.8549,1.2875 v 12.4085 c 0,9.7028 0.1493,12.3151 0.6344,12.1099 17.3905,-7.4451 25.9925,-9.4976 38.1211,-9.1617 5.1126,0.1492 6.2135,0.3358 7.3891,1.2315 2.3697,1.7166 3.0974,3.8438 3.0974,8.9191 0,2.519 -0.093,4.5716 -0.2426,4.5716 -1.4181,0 -11.0276,1.2315 -15.6178,2.0152 -23.5854,3.9371 -35.8073,12.0166 -39.054,25.6566 -0.933,4.0864 -0.933,13.9385 0,18.0249 1.586,6.6054 4.926,11.5315 10.244,14.9275 11.0276,7.1465 27.6718,7.8742 71.148,3.0974 l 3.0602,-0.3358 v -36.9829 c 0,-20.3386 -0.2426,-38.998 -0.4852,-41.461 -1.4741,-13.8452 -8.0795,-20.7865 -22.5032,-23.5294 -4.0304,-0.7464 -14.7222,-1.2875 -19.3497,-0.989 z m 14.2744,71.5585 v 10.7851 l -4.2916,0.6344 c -6.6987,0.989 -15.6552,0.877 -18.4728,-0.2052 -5.1313,-1.9779 -7.1465,-7.725 -4.5342,-12.763 1.4181,-2.7616 4.9261,-5.0194 10.1507,-6.5494 2.5563,-0.7464 13.5467,-2.5564 16.047,-2.6497 l 1.0822,-0.056 v 10.7851 z m 87.1578,-71.5026 c -11.6808,0.4852 -29.1086,3.3027 -41.4611,6.6054 l -1.8659,0.4852 v 97.4577 h 32.5046 l 0.093,-38.3076 0.1492,-38.2517 3.452,-0.9329 c 2.463,-0.6344 5.3179,-0.933 10.0947,-0.989 6.0083,-0.056 6.904,0.056 9.255,1.1383 3.1908,1.4181 5.2247,3.6945 6.3442,7.0345 0.7837,2.3698 0.877,5.6538 1.0263,36.4417 l 0.1493,33.8854 h 32.0007 l -0.2052,-38.5129 c -0.1493,-34.6131 -0.2426,-38.9047 -0.989,-41.7036 -1.4741,-5.5605 -3.6945,-9.311 -7.7249,-13.3974 -6.3069,-6.3442 -14.7782,-9.6469 -27.7278,-10.7292 -6.0083,-0.4851 -7.725,-0.5411 -15.1141,-0.2052 z m 216.3923,0.3919 c -18.9578,3.452 -32.5418,14.8155 -38.2516,32.15 -2.7056,8.1168 -3.452,13.8826 -3.1534,24.1825 0.2052,6.1576 0.5411,9.8895 1.2315,12.9123 4.0304,17.1852 14.7222,29.2392 30.6759,34.669 13.64,4.6835 32.4486,3.8998 44.8571,-1.8659 15.8604,-7.2771 25.5633,-21.5702 27.9144,-40.9759 2.7615,-22.4472 -4.6835,-42.7485 -19.2565,-52.7873 -6.3442,-4.3849 -11.4195,-6.4561 -19.7416,-8.0795 -5.7097,-1.1382 -18.7153,-1.2315 -24.2758,-0.2052 z m 18.1183,26.347 c 5.2246,1.9219 9.1617,6.9972 11.3262,14.5169 0.9889,3.396 1.1382,5.0754 1.1382,12.0726 0,6.9413 -0.1493,8.658 -1.1382,11.9607 -2.1645,7.5757 -5.4672,12.0166 -10.8411,14.5356 -2.4071,1.1382 -3.452,1.3248 -7.4824,1.3248 -3.9931,0 -5.0753,-0.2053 -7.3891,-1.2875 -5.3179,-2.463 -8.5086,-6.4561 -10.7291,-13.1548 -1.6794,-5.1127 -2.1272,-16.98 -0.877,-23.0443 1.4741,-7.0346 4.4223,-12.1659 8.9192,-15.226 4.7768,-3.3027 11.1769,-3.9372 17.0919,-1.7167 z m -110.6499,-26.291 c -12.9496,1.3807 -22.6525,3.7505 -31.1238,7.6316 -20.1894,9.2551 -30.676,26.1044 -30.676,49.186 0,22.6525 10.3373,39.054 28.5675,45.3982 10.3373,3.6013 24.2758,3.7505 34.1279,0.3359 2.4071,-0.8397 4.4409,-1.4181 4.5342,-1.3248 0.3919,0.3918 -0.7463,9.7028 -1.53,12.2218 -2.519,8.4154 -7.5384,13.1922 -16.4389,15.6179 -4.5715,1.2875 -20.1334,1.2875 -26.1044,0 -5.2246,-1.0822 -12.4645,-3.452 -17.092,-5.5605 l -3.6012,-1.6233 v 29.8362 l 5.803,1.7727 c 9.8522,3.0041 18.1742,4.2916 28.8101,4.2916 24.2758,0.056 41.5543,-7.4264 51.705,-22.3539 4.5342,-6.6987 7.4451,-15.2073 8.8259,-26.0484 0.6903,-5.5232 0.8396,-62.4341 0.2052,-75.6263 l -0.3359,-7.0532 3.7879,0.1492 3.8438,0.2053 5.3739,-11.2329 c 2.9482,-6.1576 5.2619,-11.3262 5.1686,-11.4755 -0.4478,-0.3919 -10.2439,-2.1645 -17.8196,-3.1908 -5.5232,-0.7463 -10.8784,-1.0262 -20.7306,-1.1755 -7.2958,-0.056 -14.1811,-0.056 -15.2633,0.056 z m 4.8701,33.2882 c 0.1492,4.4409 0.3918,16.0471 0.5411,25.8432 l 0.2985,17.8197 -1.8659,0.5038 c -7.2771,1.9592 -14.4796,1.9592 -19.499,0.093 -8.3781,-3.2094 -12.6137,-10.3933 -13.0429,-22.0554 -0.3359,-9.7588 1.5301,-16.0097 6.4002,-21.1223 5.3739,-5.6725 13.6399,-8.7139 24.3317,-9.0125 l 2.5564,-0.056 0.2985,7.9862 z m -318.3098,5.915 c 0,55.7915 -0.6904,63.0873 -6.7547,74.8986 -3.7878,7.3891 -10.7851,13.5467 -21.2716,18.8086 -2.6683,1.3248 -3.4893,1.9219 -2.9482,2.2205 0.3919,0.2426 7.1465,3.452 14.9648,7.1465 l 14.2744,6.7547 3.0042,-1.5301 c 19.1071,-9.8894 27.7651,-23.7346 30.2467,-48.5516 0.3359,-3.2467 0.6904,-23.5854 0.8397,-51.3505 l 0.2986,-45.9019 h -32.6539 v 37.5239 z"
       id="path1-2"
       style="stroke-width:18.6593" /><g
       id="g2"
       transform="matrix(0.95423408,0,0,0.95423408,5294.0423,1178.2155)"><path
         d="M 0,222.99122 C 0,241.22347 14.778532,256 33.008775,256 H 222.99122 C 241.22347,256 256,241.22147 256,222.99122 V 33.008775 C 256,14.776526 241.22147,0 222.99122,0 H 33.008775 C 14.776526,0 0,14.778532 0,33.008775 Z"
         fill="#563d7c"
         id="path1-4" /><path
         d="M 106.15756,113.2381 V 76.984594 h 31.91177 c 3.03923,0 5.96987,0.253265 8.79201,0.759804 2.82215,0.506538 5.31862,1.411058 7.4895,2.713585 2.17088,1.302528 3.90756,3.111567 5.21008,5.427171 1.30253,2.315605 1.95379,5.282428 1.95379,8.90056 0,6.512636 -1.95377,11.216136 -5.86135,14.110646 -3.90758,2.8945 -8.90053,4.34174 -14.97899,4.34174 z M 72.07493,50.5 v 155 h 75.11204 c 6.94682,0 13.71262,-0.86834 20.29762,-2.60504 6.585,-1.73671 12.44629,-4.41408 17.58404,-8.03222 5.13774,-3.61813 9.22617,-8.28545 12.2654,-14.0021 3.03923,-5.71664 4.55883,-12.48245 4.55883,-20.29762 0,-9.69659 -2.35175,-17.98199 -7.05533,-24.85644 -4.70357,-6.87445 -11.83118,-11.68649 -21.38305,-14.43627 6.94681,-3.32868 12.19303,-7.59801 15.7388,-12.80812 3.54577,-5.21011 5.31863,-11.722655 5.31863,-19.53782 0,-7.236264 -1.19397,-13.314635 -3.58194,-18.235294 -2.38797,-4.92066 -5.75278,-8.864365 -10.09454,-11.831233 -4.34175,-2.966868 -9.55179,-5.101534 -15.63025,-6.404062 C 159.12672,51.151254 152.3971,50.5 145.01611,50.5 Z m 34.08263,128.51541 v -42.54902 h 37.12185 c 7.38099,0 13.31464,1.70049 17.80112,5.10154 4.48649,3.40104 6.72969,9.08142 6.72969,17.04131 0,4.05231 -0.68743,7.38094 -2.06232,9.986 -1.37489,2.60505 -3.22011,4.66736 -5.53572,6.18697 -2.3156,1.51962 -4.99298,2.60504 -8.03221,3.2563 -3.03923,0.65127 -6.22314,0.9769 -9.55182,0.9769 z"
         fill="#ffffff"
         id="path2-1" /></g><path
       id="path5125"
       inkscape:connector-curvature="0"
       d="m 5740.9468,1809.8895 v 201.5454 l 118.0268,49.0724 118.027,-49.0724 v -201.5454 z m 56.5209,80.0099 c 16.8445,0.2902 28.5635,9.6505 28.6714,28.278 h -18.2693 c 0.013,-4.9715 -1.9199,-9.7044 -5.9643,-11.5917 -4.5639,-1.8036 -10.2666,-0.9101 -13.1974,3.36 -3.1384,5.1851 -2.579,10.989 -2.579,17.1006 -0.173,8.1438 3.5992,15.1837 11.0794,15.2377 7.5789,-0.4214 11.1802,-4.5083 11.2522,-12.0535 h 17.6784 c -0.4243,20.0071 -12.6705,27.7677 -28.6714,27.8486 -20.2087,0.1354 -30.7404,-15.5924 -30.904,-34.1058 -0.1193,-22.3259 14.1631,-33.8922 30.904,-34.0739 z m 63.9264,0 c 12.1329,-0.1416 26.0068,5.6942 26.3518,20.3326 v 1.1146 h -17.9375 v -0.3662 c -0.1107,-4.8071 -4.0595,-6.6688 -7.6934,-6.6874 -2.6343,0.075 -7.8324,0.7005 -7.91,4.299 0.6632,5.6879 13.4467,6.7246 17.4187,7.8023 9.2268,2.166 17.4993,7.9476 17.7649,18.6925 -0.2997,17.3946 -13.0712,22.9356 -26.2508,22.9918 -15.6582,-0.1236 -29.318,-4.2833 -29.4348,-23.4536 h 18.0959 c -0.1688,6.8562 4.6741,8.2989 9.5952,8.3113 2.949,0 8.3703,-0.1181 8.4143,-4.3947 -0.5959,-5.2718 -13.8128,-6.6406 -17.5918,-7.7063 -9.7598,-2.7037 -17.4797,-8.3197 -17.5486,-19.8551 0.6749,-16.7835 14.3065,-21.0294 26.7261,-21.0808 z m 62.5868,0 c 13.0021,0.1203 26.337,5.5571 26.337,21.4472 h -17.9228 c 0.1597,-5.0003 -4.0077,-7.0345 -7.6936,-7.0533 -2.6341,0.075 -7.832,0.7004 -7.9101,4.299 0.5634,5.6157 13.4955,6.7374 17.4192,7.8021 6.426,1.7143 12.9871,4.5902 16.1076,10.9862 1.0431,2.0873 1.5859,4.6535 1.6426,7.7065 -0.288,17.3989 -13.0661,22.9357 -26.2507,22.9917 -15.6489,-0.1191 -29.3159,-4.2937 -29.4346,-23.4536 h 18.0958 c -0.098,4.3795 2.0193,7.3345 5.6333,8.025 3.2707,0.3395 12.3302,1.5454 12.3907,-4.1082 -0.7127,-5.3561 -13.7494,-6.6226 -17.5918,-7.7061 -9.7694,-2.7055 -17.4799,-8.309 -17.5483,-19.8553 0.6766,-16.7953 14.2901,-21.0295 26.7257,-21.0812 z"
       style="stroke-width:0.206792" /><g
       style="fill:#000000"
       id="g19"
       transform="matrix(0.499793,0,0,0.51183918,5614.6722,1462.4293)"><g
         id="c133de6af664cd4f011a55de6b000d0b"
         transform="translate(217.7132,-189.81188)">

<path
   display="inline"
   d="m 108.669,0.501 h 23.032 V 23.257 H 152.77 V 0.501 h 23.034 V 69.41 H 152.772 V 46.334 H 131.703 V 69.41 H 108.671 V 0.501 Z m 97.422,22.852 H 185.816 V 0.501 H 249.41 V 23.353 H 229.125 V 69.41 H 206.093 V 23.353 Z M 259.502,0.501 h 24.02 l 14.771,24.213 14.759,-24.213 h 24.023 V 69.41 H 314.137 V 35.256 l -15.845,24.5 h -0.395 l -15.856,-24.5 V 69.41 h -22.539 z m 89.038,0 h 23.038 v 46.133 h 32.391 V 69.41 H 348.54 Z M 74.987,100.926 107.933,470.459 255.777,511.499 404.031,470.4 437.012,100.925 H 74.987 Z m 293.302,87.694 -2.063,22.977 -0.906,10.188 H 365.171 256 255.842 191.886 l 4.142,46.407 h 59.814 0.158 92.98 12.214 l -1.106,12.172 -10.65,119.32 -0.682,7.652 L 256,433.045 v 0.008 l -0.208,0.059 -92.839,-25.774 -6.351,-71.161 h 20.97 24.527 l 3.227,36.146 50.474,13.632 0.042,-0.013 v -0.004 l 50.551,-13.64 5.257,-58.781 H 256 255.842 154.578 L 143.439,188.62 142.354,176.463 H 255.842 256 369.374 Z"
   id="path1-1">

</path>

</g></g><path
       d="m 5032.0621,1363.3012 c 2.2764,0 4.1218,-2.192 4.1218,-4.896 0,-2.7039 -1.8454,-4.896 -4.1218,-4.896 -2.2764,0 -4.1218,2.1921 -4.1218,4.896 0,2.704 1.8454,4.896 4.1218,4.896 z m 5.2315,42.181 c 0,0 -5.2315,-31.2592 -39.4742,-22.7853 -3.4877,-14.1231 -2.8535,-24.48 4.7559,-34.0837 10.3046,-12.9932 26.4747,-5.8375 26.4747,-5.8375 v -10.7335 c -5.7071,-3.013 -11.0972,-3.5779 -17.1213,-3.5779 -22.0358,0 -34.2426,19.584 -39.4741,32.7655 l -61.9856,135.3932 17.4384,-3.9544 -32.0232,73.44 22.3528,-4.7077 17.1213,-57.8105 c 48.5104,0 110.6545,-20.7138 101.9353,-98.1082 z m 20.926,-26.1748 -13.6336,-15.6295 -10.7801,15.6295 z m -114.7762,107.5236 c 0,0 1.5853,-0.3765 4.4388,-1.1298 2.8536,-0.7532 6.8169,-1.8831 11.5728,-3.3895 2.3779,-0.7532 4.9144,-1.6948 7.6095,-2.8246 2.695,-1.1299 5.5485,-2.2597 8.2436,-3.7662 2.8535,-1.3181 5.7071,-3.0129 8.5606,-4.896 2.8536,-1.8831 5.5486,-3.9545 8.0851,-6.4025 0.6341,-0.5649 1.2683,-1.1298 1.9024,-1.8831 l 1.9023,-1.883 c 1.1098,-1.3182 2.378,-2.6363 3.4877,-4.1428 1.1097,-1.3181 2.0609,-2.8246 3.0121,-4.331 0.4756,-0.7533 0.9512,-1.5065 1.4268,-2.2598 l 0.6341,-1.1298 0.6341,-1.1299 c 0.317,-0.7532 0.7927,-1.5064 1.1097,-2.2597 0.3171,-0.7532 0.6341,-1.5064 1.1098,-2.2596 0.1585,-0.3766 0.317,-0.7532 0.4756,-1.1299 0.1585,-0.3766 0.317,-0.7532 0.4755,-1.1298 0.3171,-0.7532 0.6341,-1.5065 0.7927,-2.2597 0.4756,-1.5065 0.9512,-3.013 1.4268,-4.5194 0.317,-1.5064 0.7926,-3.0129 1.1097,-4.3311 0.317,-1.3181 0.4756,-2.8245 0.7926,-3.9545 0.1586,-1.3181 0.3171,-2.4479 0.4756,-3.7661 0.1586,-1.1298 0.3171,-2.2597 0.3171,-3.2012 0.1585,-0.9416 0.1585,-1.8831 0.3171,-2.8247 0.1584,-3.3895 0.1584,-5.2725 0.1584,-5.2725 l 2.5366,0.1882 c 0,0 -0.1585,2.0715 -0.3171,5.461 -0.1585,0.9415 -0.1585,1.883 -0.317,2.8246 -0.1586,1.1299 -0.1586,2.2597 -0.4757,3.3895 -0.1585,1.1299 -0.4755,2.4481 -0.6341,3.7662 -0.317,1.3181 -0.6341,2.6363 -0.9511,4.1427 -0.3171,1.5065 -0.7927,2.8247 -1.2683,4.5194 -0.4756,1.5065 -0.9512,3.013 -1.5853,4.7077 -0.3171,0.7533 -0.6341,1.5065 -0.9512,2.2597 -0.1585,0.3767 -0.3171,0.7533 -0.4756,1.1299 -0.1585,0.3766 -0.3171,0.7532 -0.4756,1.1298 -0.317,0.7533 -0.7926,1.5065 -1.1097,2.448 -0.4756,0.7533 -0.7927,1.5065 -1.2682,2.2597 -0.1586,0.3766 -0.4756,0.7533 -0.6342,1.1299 l -0.6341,1.1298 c -0.4756,0.7532 -0.9512,1.5064 -1.4268,2.2597 -1.1097,1.5065 -2.0608,3.0129 -3.3291,4.3311 -1.1097,1.5064 -2.378,2.6363 -3.6462,4.1428 l -1.9024,1.883 c -0.6341,0.5649 -1.2682,1.1299 -2.0609,1.6948 -2.695,2.2597 -5.5486,4.3311 -8.4021,6.2142 -2.8536,1.6947 -5.8657,3.3895 -8.7192,4.7076 -2.8536,1.3182 -5.7071,2.448 -8.4021,3.3896 -2.6951,0.9415 -5.2316,1.883 -7.768,2.448 -4.7559,1.3181 -8.8777,2.448 -11.7313,3.0129 -2.5365,1.1299 -4.1218,1.5064 -4.1218,1.5064 z"
       fill="#000000"
       id="path1-8"
       style="stroke-width:0.691116" /><path
       d="m 5287.4939,2164.3233 q 19.7793,-79.1174 98.8966,-79.1174 c 79.1174,0 89.0071,59.338 128.5657,69.2277 q 39.5587,9.8897 69.2277,-29.669 -19.7793,79.1173 -98.8967,79.1173 c -79.1173,0 -89.007,-59.338 -128.5657,-69.2277 q -39.5586,-9.8896 -69.2276,29.6691 z m -98.8968,118.676 q 19.7793,-79.1174 98.8968,-79.1174 c 79.1173,0 89.007,59.338 128.5657,69.2277 q 39.5586,9.8897 69.2276,-29.669 -19.7793,79.1174 -98.8967,79.1174 c -79.1173,0 -89.007,-59.3381 -128.5657,-69.2277 q -39.5587,-9.8897 -69.2277,29.669 z"
       style="fill:#44a8b3;stroke-width:14.1281"
       id="path1-46" /><g
       id="g20"
       transform="matrix(0.45351349,0,0,0.40038286,5721.7296,2184.9355)"><rect
         width="512"
         height="512"
         rx="15.000001%"
         fill="#f7df1e"
         id="rect1"
         x="0"
         y="0" /><path
         d="m 324,370 c 10,17 24,29 47,29 20,0 33,-10 33,-24 0,-16 -13,-22 -35,-32 l -12,-5 c -35,-15 -58,-33 -58,-72 0,-36 27,-64 70,-64 31,0 53,11 68,39 l -37,24 c -8,-15 -17,-21 -31,-21 -14,0 -23,9 -23,21 0,14 9,20 30,29 l 12,5 c 41,18 64,35 64,76 0,43 -34,67 -80,67 -45,0 -74,-21 -88,-49 z m -170,4 c 8,13 14,25 31,25 16,0 26,-6 26,-30 V 203 h 48 v 164 c 0,50 -29,72 -72,72 -39,0 -61,-20 -72,-44 z"
         id="path1-0" /></g></g></svg>
